<svg id="svg" version="1.1" xmlns="http://www.w3.org/2000/svg" xmlns:xlink="http://www.w3.org/1999/xlink" width="400" height="400" viewBox="0, 0, 400,400"><g id="svgg"><path id="path0" d="M187.710 0.112 C 187.635 0.187,186.500 0.312,185.187 0.391 C 183.874 0.470,182.170 0.594,181.400 0.667 C 178.700 0.923,176.927 1.108,176.267 1.203 C 175.900 1.256,174.940 1.374,174.133 1.467 C 173.327 1.559,172.367 1.680,172.000 1.735 C 171.633 1.791,170.849 1.905,170.256 1.989 C 169.663 2.073,168.943 2.186,168.656 2.240 C 168.369 2.293,167.593 2.425,166.933 2.533 C 165.586 2.754,164.969 2.864,164.000 3.058 C 163.633 3.131,162.913 3.260,162.400 3.344 C 122.367 9.915,79.174 34.539,50.437 67.174 C 49.610 68.113,48.808 69.013,48.654 69.174 C 31.060 87.605,12.350 123.709,5.974 151.533 C 5.915 151.790,5.815 152.210,5.753 152.467 C 3.628 161.156,1.822 171.239,1.203 177.867 C 1.114 178.820,0.992 180.020,0.933 180.533 C 0.873 181.047,0.753 182.628,0.666 184.046 C 0.579 185.465,0.394 187.024,0.254 187.511 C -0.070 188.639,-0.083 211.048,0.239 212.171 C 0.371 212.629,0.557 214.009,0.653 215.236 C 0.749 216.463,0.876 217.887,0.935 218.400 C 0.995 218.913,1.117 220.213,1.208 221.289 C 1.298 222.364,1.410 223.444,1.456 223.689 C 1.502 223.933,1.619 224.853,1.717 225.733 C 1.815 226.613,1.943 227.633,2.001 228.000 C 3.007 234.356,3.351 236.367,3.899 239.067 C 4.255 240.827,4.611 242.623,4.688 243.059 C 9.792 271.840,28.975 308.987,51.583 333.867 C 53.298 335.754,64.869 347.309,66.270 348.533 C 66.857 349.047,68.237 350.247,69.336 351.200 C 70.434 352.153,71.393 352.995,71.467 353.070 C 71.853 353.469,78.630 358.840,80.933 360.573 C 99.430 374.492,121.933 385.575,145.200 392.227 C 152.769 394.391,163.846 396.864,168.698 397.472 C 169.414 397.562,170.180 397.683,170.400 397.741 C 170.620 397.799,171.400 397.920,172.133 398.009 C 172.867 398.098,173.742 398.216,174.079 398.270 C 174.416 398.325,175.496 398.443,176.479 398.532 C 177.462 398.622,178.627 398.741,179.067 398.798 C 179.507 398.854,180.887 398.975,182.133 399.066 C 183.380 399.157,184.760 399.276,185.200 399.331 C 188.738 399.767,191.516 399.867,200.133 399.867 C 205.560 399.867,210.600 399.782,211.333 399.679 C 212.067 399.576,213.747 399.421,215.067 399.334 C 216.387 399.247,217.887 399.128,218.400 399.070 C 218.913 399.012,220.173 398.890,221.200 398.800 C 222.227 398.709,223.367 398.590,223.733 398.535 C 224.100 398.480,225.060 398.359,225.867 398.267 C 226.673 398.174,227.633 398.054,228.000 397.998 C 228.367 397.943,229.207 397.821,229.867 397.728 C 230.527 397.636,232.087 397.384,233.333 397.169 C 234.580 396.955,235.960 396.718,236.400 396.642 C 311.174 383.872,374.401 325.029,393.823 250.133 C 394.751 246.555,396.081 240.723,396.408 238.800 C 396.483 238.360,396.663 237.400,396.809 236.667 C 397.151 234.948,397.229 234.518,397.467 233.067 C 397.575 232.407,397.707 231.631,397.760 231.344 C 397.814 231.057,397.927 230.337,398.011 229.744 C 398.095 229.151,398.211 228.367,398.267 228.000 C 398.498 226.504,398.932 222.959,399.083 221.333 C 399.172 220.380,399.292 219.300,399.351 218.933 C 400.028 214.739,400.027 184.174,399.350 180.612 C 399.300 180.349,399.173 179.113,399.068 177.867 C 398.963 176.620,398.840 175.538,398.795 175.463 C 398.750 175.387,398.629 174.487,398.526 173.463 C 398.424 172.438,398.302 171.536,398.256 171.457 C 398.210 171.379,398.090 170.599,397.990 169.724 C 397.890 168.849,397.771 168.071,397.726 167.994 C 397.681 167.918,397.568 167.318,397.475 166.661 C 397.383 166.004,397.257 165.287,397.196 165.067 C 397.135 164.847,397.019 164.247,396.937 163.733 C 396.375 160.209,394.525 152.031,393.165 147.067 C 376.140 84.893,330.078 34.616,269.600 12.194 C 262.513 9.567,253.474 6.785,247.733 5.464 C 245.315 4.908,238.589 3.458,237.867 3.337 C 237.353 3.251,236.753 3.131,236.533 3.070 C 236.313 3.010,235.649 2.892,235.056 2.809 C 234.463 2.726,233.688 2.602,233.333 2.533 C 232.978 2.465,232.258 2.345,231.733 2.267 C 231.208 2.188,230.532 2.077,230.230 2.019 C 229.928 1.960,229.045 1.832,228.267 1.733 C 227.489 1.635,226.661 1.517,226.426 1.472 C 226.192 1.427,225.220 1.304,224.267 1.200 C 223.313 1.096,222.351 0.975,222.128 0.932 C 221.905 0.889,220.585 0.770,219.195 0.668 C 217.804 0.565,216.247 0.419,215.733 0.343 C 214.484 0.158,187.883 -0.061,187.710 0.112 M211.200 19.827 C 211.713 19.889,213.286 20.019,214.695 20.114 C 216.105 20.210,217.545 20.334,217.895 20.390 C 218.246 20.447,219.350 20.570,220.348 20.664 C 221.346 20.759,222.366 20.874,222.615 20.921 C 222.863 20.968,223.727 21.082,224.533 21.175 C 225.340 21.268,226.300 21.393,226.667 21.453 C 229.523 21.921,232.511 22.425,233.067 22.532 C 234.853 22.876,238.209 23.570,239.533 23.869 C 239.863 23.943,240.373 24.050,240.667 24.106 C 265.783 28.880,298.336 45.822,320.395 65.600 C 348.999 91.245,370.883 129.411,376.893 164.133 C 376.969 164.573,377.273 166.253,377.569 167.867 C 377.865 169.480,378.176 171.280,378.261 171.867 C 378.345 172.453,378.525 173.653,378.661 174.533 C 378.796 175.413,378.982 176.853,379.073 177.733 C 379.165 178.613,379.282 179.595,379.332 179.916 C 379.383 180.236,379.507 181.436,379.606 182.583 C 379.706 183.729,379.829 185.087,379.878 185.600 C 380.505 192.066,380.496 209.015,379.864 214.000 C 379.808 214.440,379.687 215.760,379.596 216.933 C 379.504 218.107,379.381 219.427,379.323 219.867 C 379.264 220.307,379.089 221.687,378.933 222.933 C 378.634 225.330,378.454 226.641,378.272 227.733 C 371.181 270.349,351.909 305.599,319.773 334.733 C 295.941 356.338,260.684 373.218,230.000 377.713 C 229.413 377.799,228.633 377.924,228.267 377.991 C 227.375 378.153,226.068 378.329,224.133 378.547 C 223.253 378.647,222.330 378.766,222.082 378.812 C 221.833 378.859,220.813 378.972,219.815 379.063 C 218.817 379.154,217.640 379.273,217.200 379.328 C 216.381 379.430,213.524 379.643,209.733 379.884 C 207.480 380.028,192.617 380.036,190.800 379.895 C 190.213 379.850,188.293 379.722,186.533 379.611 C 184.773 379.500,183.153 379.377,182.933 379.336 C 182.713 379.296,181.586 379.178,180.428 379.075 C 179.270 378.972,178.118 378.848,177.869 378.800 C 177.619 378.752,176.766 378.635,175.974 378.539 C 173.994 378.300,172.577 378.077,167.333 377.177 C 130.897 370.919,90.223 348.394,67.464 321.867 C 67.149 321.500,66.451 320.720,65.913 320.133 C 47.070 299.597,32.236 271.687,25.235 243.600 C 23.431 236.366,21.791 227.592,21.196 222.000 C 21.102 221.120,20.982 220.100,20.930 219.733 C 20.877 219.367,20.750 218.107,20.647 216.933 C 20.545 215.760,20.425 214.440,20.382 214.000 C 19.774 207.863,19.776 188.676,20.385 185.396 C 20.432 185.141,20.556 183.860,20.661 182.547 C 20.765 181.235,20.886 179.975,20.928 179.747 C 20.971 179.520,21.083 178.613,21.177 177.733 C 21.271 176.853,21.401 175.833,21.466 175.467 C 21.530 175.100,21.652 174.260,21.736 173.600 C 21.820 172.940,22.122 171.080,22.409 169.467 C 22.695 167.853,22.991 166.173,23.067 165.733 C 23.143 165.293,23.276 164.633,23.362 164.267 C 23.448 163.900,23.573 163.300,23.640 162.933 C 29.860 128.842,52.043 90.335,79.488 65.987 C 80.307 65.261,81.398 64.291,81.914 63.831 C 106.282 42.104,141.008 26.060,173.600 21.471 C 174.260 21.379,175.100 21.256,175.467 21.199 C 175.833 21.142,176.853 21.015,177.733 20.917 C 178.613 20.819,179.545 20.699,179.803 20.651 C 180.061 20.603,181.261 20.486,182.469 20.392 C 183.678 20.299,184.937 20.180,185.267 20.129 C 185.597 20.077,187.517 19.953,189.534 19.853 C 191.550 19.752,193.238 19.637,193.284 19.595 C 193.412 19.481,210.134 19.697,211.200 19.827 M191.709 52.100 C 191.649 52.153,190.340 52.274,188.800 52.368 C 187.260 52.463,185.700 52.590,185.333 52.650 C 184.967 52.710,183.850 52.837,182.852 52.931 C 181.854 53.026,180.834 53.142,180.585 53.189 C 180.337 53.236,179.533 53.353,178.800 53.449 C 177.294 53.647,176.177 53.818,175.200 54.000 C 174.833 54.068,174.142 54.188,173.663 54.267 C 173.184 54.345,171.956 54.585,170.933 54.800 C 169.911 55.015,168.683 55.257,168.204 55.338 C 167.725 55.419,167.133 55.547,166.888 55.621 C 166.643 55.695,166.223 55.798,165.955 55.850 C 150.255 58.896,128.601 68.854,112.933 80.236 C 83.449 101.653,61.495 135.917,55.078 170.533 C 54.247 175.015,53.775 177.896,53.462 180.400 C 53.370 181.133,53.246 182.033,53.185 182.400 C 53.125 182.767,53.007 183.936,52.923 184.999 C 52.839 186.061,52.721 187.186,52.661 187.498 C 52.115 190.330,52.113 208.350,52.658 211.770 C 52.713 212.117,52.835 213.360,52.930 214.533 C 53.024 215.707,53.140 216.967,53.188 217.333 C 53.237 217.700,53.359 218.648,53.461 219.440 C 53.563 220.233,53.682 221.073,53.725 221.307 C 53.799 221.708,54.021 223.115,54.298 224.933 C 54.364 225.373,54.468 225.913,54.527 226.133 C 54.587 226.353,54.705 227.013,54.791 227.600 C 54.876 228.187,54.998 228.847,55.062 229.067 C 55.127 229.287,55.233 229.767,55.298 230.133 C 61.526 265.026,85.708 301.059,117.200 322.373 C 132.665 332.840,155.585 342.543,169.861 344.666 C 170.518 344.764,171.118 344.882,171.194 344.929 C 171.271 344.976,171.753 345.084,172.267 345.169 C 172.780 345.254,173.440 345.372,173.733 345.430 C 174.027 345.489,174.807 345.625,175.467 345.733 C 176.127 345.841,176.858 345.965,177.093 346.008 C 177.327 346.052,178.155 346.168,178.933 346.267 C 179.711 346.365,180.585 346.492,180.875 346.548 C 181.165 346.604,182.257 346.723,183.301 346.814 C 184.346 346.904,185.487 347.023,185.838 347.078 C 190.323 347.783,210.934 347.779,214.641 347.072 C 214.875 347.028,215.967 346.905,217.067 346.800 C 218.167 346.695,219.258 346.572,219.493 346.527 C 219.727 346.483,220.567 346.369,221.360 346.274 C 222.152 346.180,222.980 346.056,223.200 345.998 C 223.420 345.941,224.140 345.819,224.800 345.728 C 225.460 345.638,226.480 345.458,227.067 345.330 C 227.653 345.201,228.553 345.024,229.067 344.936 C 248.912 341.533,273.143 330.517,290.432 317.039 C 294.065 314.207,295.218 313.265,298.377 310.548 C 313.219 297.783,327.795 277.571,336.029 258.335 C 339.468 250.301,343.530 237.846,344.437 232.551 C 344.501 232.175,344.617 231.658,344.694 231.402 C 344.771 231.147,344.888 230.607,344.953 230.202 C 345.019 229.798,345.143 229.167,345.229 228.800 C 345.410 228.028,345.432 227.904,346.001 224.533 C 346.601 220.971,346.624 220.822,346.797 219.333 C 346.883 218.600,347.006 217.580,347.072 217.067 C 347.674 212.363,348.099 205.010,348.090 199.467 C 348.084 196.115,347.789 188.796,347.616 187.733 C 347.557 187.367,347.429 186.129,347.333 184.983 C 347.237 183.836,347.116 182.636,347.065 182.316 C 347.013 181.995,346.899 181.133,346.810 180.400 C 346.534 178.123,345.643 172.763,345.191 170.667 C 344.954 169.567,344.703 168.378,344.634 168.026 C 344.565 167.673,344.329 166.653,344.110 165.759 C 343.891 164.865,343.649 163.833,343.573 163.467 C 339.675 144.684,325.714 118.180,311.206 102.021 C 289.097 77.396,259.193 60.125,229.486 54.824 C 229.056 54.747,228.096 54.563,227.353 54.415 C 225.786 54.103,224.924 53.956,223.225 53.709 C 222.551 53.611,221.776 53.491,221.503 53.442 C 221.229 53.393,220.329 53.279,219.503 53.189 C 218.676 53.100,217.700 52.977,217.333 52.917 C 216.967 52.856,215.767 52.735,214.667 52.647 C 213.567 52.559,212.367 52.424,212.000 52.348 C 211.240 52.190,191.876 51.953,191.709 52.100 M209.067 72.114 C 210.607 72.217,212.167 72.346,212.533 72.399 C 212.900 72.453,213.980 72.578,214.933 72.677 C 215.887 72.776,216.858 72.893,217.093 72.939 C 217.327 72.984,218.167 73.100,218.960 73.196 C 232.813 74.888,251.930 81.684,265.067 89.588 C 274.499 95.263,285.899 103.926,284.753 104.548 C 283.854 105.036,278.799 105.494,268.667 106.005 C 256.540 106.616,232.253 106.621,223.733 106.014 C 223.073 105.967,221.033 105.844,219.200 105.741 C 217.367 105.638,215.447 105.515,214.933 105.467 C 214.420 105.420,212.860 105.303,211.467 105.208 C 210.073 105.114,208.633 104.993,208.267 104.939 C 207.900 104.886,206.526 104.762,205.214 104.663 C 203.902 104.564,202.642 104.448,202.414 104.406 C 202.186 104.364,201.053 104.245,199.895 104.142 C 198.737 104.039,197.597 103.919,197.361 103.875 C 197.126 103.831,196.117 103.713,195.118 103.613 C 194.120 103.512,193.100 103.392,192.852 103.346 C 192.603 103.299,191.680 103.180,190.800 103.081 C 189.289 102.910,188.668 102.832,186.600 102.548 C 186.123 102.482,185.133 102.355,184.400 102.265 C 183.667 102.175,182.407 101.995,181.600 101.865 C 180.793 101.734,179.653 101.559,179.067 101.476 C 176.595 101.126,168.769 99.779,165.067 99.067 C 163.977 98.857,157.788 97.607,157.067 97.450 C 156.700 97.371,156.100 97.245,155.733 97.170 C 153.627 96.742,147.112 95.265,142.133 94.087 C 138.980 93.341,135.500 92.528,134.400 92.281 C 132.051 91.754,132.015 91.647,133.748 90.336 C 139.495 85.988,161.128 77.247,171.600 75.041 C 172.176 74.920,172.818 74.779,173.867 74.545 C 175.028 74.285,180.402 73.366,181.761 73.194 C 182.479 73.103,183.342 72.984,183.679 72.930 C 184.016 72.875,185.096 72.755,186.079 72.662 C 187.062 72.569,188.160 72.445,188.519 72.388 C 188.878 72.330,190.618 72.205,192.386 72.109 C 194.154 72.013,195.627 71.913,195.660 71.885 C 195.808 71.762,206.550 71.946,209.067 72.114 M129.800 111.846 C 130.277 111.931,131.008 112.058,131.426 112.130 C 131.844 112.201,134.694 112.873,137.759 113.622 C 140.825 114.371,143.573 115.034,143.867 115.094 C 144.160 115.155,144.640 115.254,144.933 115.315 C 145.227 115.375,146.247 115.608,147.200 115.832 C 148.153 116.056,149.233 116.300,149.600 116.373 C 149.967 116.446,150.567 116.570,150.933 116.649 C 152.036 116.886,154.223 117.333,154.933 117.466 C 155.300 117.535,155.900 117.655,156.267 117.733 C 156.633 117.812,157.233 117.932,157.600 118.001 C 157.967 118.070,158.867 118.249,159.600 118.400 C 160.333 118.551,161.233 118.730,161.600 118.799 C 161.967 118.868,162.567 118.984,162.933 119.058 C 163.300 119.131,164.020 119.260,164.533 119.345 C 165.047 119.430,166.487 119.677,167.733 119.894 C 171.924 120.622,173.850 120.939,175.611 121.189 C 176.203 121.273,176.935 121.390,177.237 121.448 C 177.539 121.506,178.422 121.635,179.200 121.733 C 179.978 121.832,180.818 121.952,181.067 122.000 C 181.315 122.048,182.155 122.168,182.933 122.267 C 183.711 122.365,184.539 122.482,184.774 122.526 C 185.008 122.570,185.876 122.684,186.703 122.779 C 187.529 122.874,188.429 122.995,188.703 123.048 C 188.976 123.100,189.980 123.224,190.933 123.323 C 191.887 123.422,192.967 123.547,193.333 123.601 C 194.006 123.700,195.814 123.902,198.267 124.154 C 199.000 124.229,200.020 124.339,200.533 124.398 C 201.047 124.458,202.367 124.581,203.467 124.672 C 204.567 124.763,205.767 124.880,206.133 124.932 C 206.500 124.984,208.060 125.109,209.600 125.210 C 211.140 125.311,212.580 125.427,212.800 125.467 C 213.020 125.508,214.940 125.632,217.067 125.741 C 219.193 125.851,221.413 125.971,222.000 126.007 C 233.117 126.696,262.845 126.698,270.133 126.011 C 270.647 125.962,272.507 125.843,274.267 125.746 C 276.027 125.649,277.827 125.524,278.267 125.468 C 278.707 125.411,280.207 125.289,281.600 125.196 C 284.480 125.003,284.876 124.969,291.333 124.371 C 292.213 124.289,293.220 124.177,293.571 124.122 C 298.586 123.332,299.678 123.648,299.346 125.797 C 298.146 133.556,295.580 138.761,290.606 143.527 C 286.072 147.870,278.894 151.571,273.419 152.387 C 272.847 152.473,272.143 152.587,271.856 152.642 C 270.504 152.901,262.695 153.438,255.867 153.743 C 249.791 154.014,248.984 154.102,248.548 154.538 C 248.175 154.911,248.132 162.453,248.115 229.410 C 248.105 270.361,248.008 304.389,247.898 305.026 C 245.179 320.895,223.045 328.424,211.718 317.333 C 207.257 312.966,207.352 314.066,207.843 272.400 C 208.306 233.066,208.307 233.392,207.707 232.972 C 207.289 232.679,206.172 232.595,202.849 232.607 C 198.928 232.620,188.068 232.333,185.035 232.136 C 184.358 232.092,182.018 231.973,179.835 231.873 C 177.652 231.773,175.447 231.651,174.933 231.603 C 174.420 231.555,172.680 231.437,171.067 231.342 C 169.453 231.246,167.833 231.125,167.467 231.072 C 167.100 231.019,165.840 230.901,164.667 230.810 C 163.493 230.719,162.083 230.589,161.533 230.522 C 160.983 230.455,160.083 230.345,159.533 230.277 C 151.044 229.233,148.646 229.550,146.149 232.047 C 144.048 234.148,143.938 234.865,143.603 248.667 C 143.413 256.502,143.243 257.722,141.834 261.377 C 137.942 271.470,126.928 276.594,114.133 274.264 C 113.767 274.197,113.047 274.078,112.533 273.999 C 112.020 273.921,111.000 273.741,110.267 273.601 C 109.533 273.461,108.633 273.294,108.267 273.230 C 106.824 272.980,106.541 272.678,106.611 271.467 C 106.616 271.393,106.695 269.653,106.789 267.600 C 106.882 265.547,107.009 263.027,107.072 262.000 C 107.134 260.973,107.251 258.813,107.332 257.200 C 107.413 255.587,107.537 253.127,107.609 251.733 C 107.843 247.177,107.985 244.190,108.137 240.667 C 108.219 238.760,108.339 236.180,108.403 234.933 C 108.467 233.687,108.587 231.107,108.670 229.200 C 108.753 227.293,108.872 224.833,108.934 223.733 C 108.997 222.633,109.115 220.173,109.198 218.267 C 109.280 216.360,109.412 213.840,109.491 212.667 C 110.499 197.639,122.256 189.466,138.667 192.384 C 140.505 192.711,143.146 193.155,145.133 193.471 C 145.610 193.547,146.300 193.663,146.667 193.730 C 147.033 193.796,147.873 193.921,148.533 194.007 C 149.751 194.166,150.123 194.219,152.267 194.533 C 154.254 194.825,154.747 194.895,156.000 195.067 C 156.660 195.157,157.500 195.276,157.867 195.331 C 158.233 195.387,159.193 195.508,160.000 195.600 C 160.807 195.692,161.767 195.812,162.133 195.866 C 162.500 195.919,163.580 196.040,164.533 196.133 C 165.487 196.227,166.567 196.347,166.933 196.400 C 167.300 196.453,168.380 196.571,169.333 196.661 C 170.287 196.752,171.487 196.874,172.000 196.933 C 172.513 196.992,173.833 197.114,174.933 197.205 C 176.033 197.297,177.233 197.414,177.600 197.466 C 177.967 197.518,179.527 197.643,181.067 197.743 C 182.607 197.844,184.047 197.960,184.267 198.001 C 184.487 198.042,186.227 198.160,188.133 198.262 C 190.040 198.365,192.020 198.490,192.533 198.539 C 193.678 198.649,204.976 199.028,206.749 199.017 C 208.716 199.004,208.603 199.805,208.695 185.147 C 208.740 177.843,208.835 167.930,208.907 163.118 C 209.056 153.047,209.124 153.357,206.733 153.307 C 206.037 153.292,205.167 153.249,204.800 153.210 C 204.433 153.172,202.693 153.050,200.933 152.939 C 199.173 152.828,197.553 152.705,197.333 152.665 C 197.113 152.625,195.793 152.506,194.400 152.400 C 193.007 152.294,191.687 152.174,191.467 152.133 C 191.247 152.092,190.047 151.972,188.800 151.867 C 187.553 151.761,186.330 151.636,186.082 151.589 C 185.833 151.542,184.813 151.421,183.815 151.321 C 182.817 151.220,181.797 151.100,181.548 151.054 C 181.300 151.008,180.280 150.888,179.282 150.787 C 178.283 150.687,177.243 150.563,176.969 150.512 C 176.696 150.461,175.796 150.341,174.969 150.246 C 174.143 150.150,173.275 150.036,173.040 149.993 C 172.806 149.949,171.978 149.832,171.200 149.733 C 170.422 149.635,169.582 149.515,169.333 149.467 C 169.085 149.419,168.233 149.302,167.440 149.208 C 166.648 149.113,165.820 148.989,165.600 148.931 C 165.380 148.874,164.660 148.757,164.000 148.672 C 163.340 148.586,162.500 148.462,162.133 148.396 C 161.767 148.330,161.107 148.218,160.667 148.148 C 160.227 148.078,158.787 147.832,157.467 147.602 C 156.147 147.371,154.647 147.117,154.133 147.037 C 153.620 146.958,152.720 146.788,152.133 146.661 C 151.547 146.534,150.654 146.357,150.150 146.269 C 148.349 145.953,141.424 144.555,139.067 144.031 C 137.747 143.738,136.367 143.439,136.000 143.368 C 127.238 141.650,102.840 135.012,102.108 134.146 C 101.603 133.549,101.801 131.509,102.672 128.323 C 105.156 119.243,112.685 112.802,121.939 111.842 C 122.852 111.747,123.634 111.640,123.675 111.605 C 123.809 111.487,128.913 111.689,129.800 111.846 M317.235 148.197 C 320.466 155.563,323.732 165.357,324.905 171.200 C 326.272 178.008,326.453 179.005,326.815 181.733 C 326.913 182.467,327.029 183.259,327.074 183.495 C 327.118 183.730,327.239 184.870,327.342 186.028 C 327.445 187.186,327.572 188.362,327.624 188.640 C 328.175 191.593,328.169 208.071,327.616 211.467 C 327.556 211.833,327.435 212.973,327.347 214.000 C 327.259 215.027,327.124 216.287,327.045 216.800 C 326.084 223.112,325.949 223.890,325.309 226.800 C 319.267 254.266,305.683 277.187,283.901 296.669 C 280.104 300.064,269.219 308.000,268.357 308.000 C 268.077 308.000,268.043 307.470,268.189 305.400 C 268.291 303.970,268.357 294.160,268.336 283.600 C 268.301 265.499,268.237 176.744,268.257 174.609 C 268.269 173.397,268.613 173.182,270.933 172.943 C 271.887 172.844,272.967 172.719,273.333 172.664 C 273.700 172.609,274.540 172.488,275.200 172.395 C 290.720 170.209,306.697 159.369,313.372 146.497 C 314.992 143.372,315.148 143.441,317.235 148.197 M86.533 150.678 C 88.000 151.132,91.000 152.043,93.200 152.703 C 95.400 153.362,98.340 154.251,99.733 154.677 C 105.135 156.332,123.902 161.283,127.600 162.030 C 128.849 162.282,129.289 162.379,130.933 162.766 C 131.887 162.990,132.967 163.233,133.333 163.306 C 133.700 163.379,134.300 163.504,134.667 163.583 C 135.434 163.748,137.748 164.224,138.533 164.380 C 138.827 164.438,140.567 164.788,142.400 165.158 C 145.353 165.754,146.821 166.032,149.733 166.547 C 150.173 166.624,151.493 166.862,152.667 167.074 C 153.840 167.287,155.280 167.529,155.867 167.613 C 156.453 167.696,157.113 167.811,157.333 167.869 C 157.553 167.926,158.218 168.041,158.811 168.124 C 159.403 168.208,160.123 168.320,160.411 168.373 C 161.400 168.557,163.831 168.924,165.867 169.196 C 166.527 169.284,167.727 169.465,168.533 169.598 C 169.340 169.731,170.648 169.916,171.440 170.010 C 172.233 170.103,173.096 170.221,173.359 170.272 C 173.622 170.322,174.654 170.446,175.652 170.546 C 176.650 170.646,177.670 170.766,177.918 170.813 C 178.167 170.859,179.187 170.979,180.185 171.079 C 181.183 171.180,182.203 171.300,182.452 171.346 C 182.700 171.392,183.720 171.512,184.718 171.613 C 188.842 172.027,188.744 171.932,188.653 175.454 C 188.584 178.117,188.467 178.191,184.674 177.990 C 183.057 177.904,181.433 177.788,181.067 177.733 C 180.700 177.677,179.560 177.557,178.533 177.467 C 177.507 177.376,176.247 177.253,175.733 177.193 C 175.220 177.134,174.080 177.014,173.200 176.927 C 172.320 176.841,171.180 176.721,170.667 176.661 C 170.153 176.600,169.013 176.478,168.133 176.389 C 167.253 176.299,166.233 176.183,165.867 176.130 C 165.500 176.078,164.540 175.959,163.733 175.867 C 162.927 175.774,161.967 175.654,161.600 175.600 C 161.233 175.546,160.285 175.423,159.493 175.327 C 158.701 175.232,157.849 175.115,157.600 175.067 C 157.351 175.019,156.499 174.901,155.707 174.805 C 154.915 174.709,153.127 174.452,151.733 174.235 C 150.340 174.018,148.900 173.795,148.533 173.740 C 147.612 173.600,142.919 172.819,142.267 172.697 C 137.476 171.800,129.904 171.372,127.200 171.845 C 126.833 171.909,125.933 172.036,125.200 172.126 C 107.910 174.254,93.150 188.286,90.272 205.333 C 90.185 205.847,90.065 206.447,90.006 206.667 C 89.946 206.887,89.825 207.727,89.737 208.533 C 89.649 209.340,89.527 210.420,89.466 210.933 C 89.405 211.447,89.284 213.727,89.196 216.000 C 89.109 218.273,88.993 220.793,88.940 221.600 C 88.886 222.407,88.770 224.687,88.681 226.667 C 88.592 228.647,88.463 231.497,88.393 233.000 C 88.324 234.503,88.210 236.963,88.140 238.467 C 88.070 239.970,87.942 242.760,87.854 244.667 C 87.767 246.573,87.650 248.913,87.595 249.867 C 87.540 250.820,87.418 253.160,87.323 255.067 C 87.089 259.781,86.992 259.861,85.396 256.667 C 79.631 245.129,75.037 230.265,73.447 218.000 C 73.352 217.267,73.238 216.474,73.193 216.239 C 73.149 216.003,73.033 214.863,72.935 213.705 C 72.838 212.547,72.710 211.300,72.650 210.933 C 72.088 207.465,72.093 191.348,72.658 187.994 C 72.719 187.631,72.840 186.613,72.927 185.733 C 73.232 182.626,73.613 180.181,74.837 173.467 C 76.593 163.830,81.878 149.239,83.437 149.720 C 83.673 149.793,85.067 150.224,86.533 150.678 M170.626 251.336 C 172.282 251.529,175.413 251.716,180.000 251.898 C 182.420 251.993,184.580 252.106,184.800 252.149 C 185.020 252.191,185.590 252.235,186.067 252.246 C 188.044 252.293,187.960 251.560,187.822 267.639 C 187.606 292.909,187.594 310.762,187.794 312.133 C 188.378 316.158,190.202 321.314,192.264 324.773 C 193.925 327.561,193.816 327.857,191.216 327.613 C 188.173 327.327,186.554 327.162,185.867 327.067 C 185.500 327.017,184.540 326.897,183.733 326.800 C 182.246 326.622,181.444 326.507,180.000 326.267 C 179.560 326.193,178.840 326.073,178.400 326.000 C 176.289 325.648,175.693 325.534,173.333 325.027 C 152.447 320.544,133.361 311.086,116.882 297.054 C 115.663 296.016,114.667 295.081,114.667 294.975 C 114.667 294.870,116.857 294.787,119.533 294.792 C 123.886 294.799,127.716 294.575,128.612 294.261 C 128.789 294.199,129.233 294.091,129.600 294.021 C 146.247 290.841,160.343 276.813,162.816 260.966 C 162.904 260.398,163.025 259.683,163.084 259.379 C 163.142 259.074,163.257 257.679,163.339 256.279 C 163.686 250.328,163.432 250.500,170.626 251.336 " stroke="none" fill="#E00" fill-rule="evenodd"></path></g></svg>